<?xml version="1.0" encoding="UTF-8"?>
<svg xmlns="http://www.w3.org/2000/svg" xmlns:xlink="http://www.w3.org/1999/xlink"
     viewBox="0 0 241 273" width="500" height="500" style="background: #f8f9fa">
  <image href="Submark - No BG.png" x="0" y="0" width="241" height="273" opacity="0.25" preserveAspectRatio="xMidYMid meet"/>
  <path d="M 10.0 121.4
           C 10.2 121.4, 10.5 121.4, 10.6 121.4
           C 10.6 121.3, 10.6 121.3, 10.7 121.2
           C 10.7 121.2, 10.8 121.1, 10.8 121.0
           C 10.9 120.9, 11.0 120.8, 11.0 120.7
           C 11.1 120.6, 11.2 120.4, 11.2 120.3
           C 11.3 120.1, 11.4 119.9, 11.5 119.6
           C 11.5 119.4, 11.6 119.1, 11.7 118.8
           C 11.7 118.5, 11.8 118.3, 11.9 117.9
           C 12.0 117.4, 12.1 116.8, 12.2 116.2
           C 12.3 115.5, 12.4 114.7, 12.6 113.9
           C 12.7 113.0, 12.9 112.0, 13.1 110.9
           C 13.2 109.7, 13.4 108.4, 13.6 107.2
           C 13.8 106.1, 13.9 105.1, 14.1 104.2
           C 14.2 103.3, 14.3 102.5, 14.4 101.8
           C 14.5 101.2, 14.6 100.6, 14.6 100.1
           C 14.7 99.8, 14.7 99.5, 14.7 99.1
           C 14.8 98.7, 14.8 98.1, 14.9 97.6
           C 14.9 96.9, 14.9 96.2, 15.0 95.5
           C 15.0 94.7, 15.1 93.8, 15.1 92.9
           C 15.2 91.9, 15.2 90.8, 15.3 89.7
           C 15.3 88.6, 15.4 87.5, 15.5 86.3
           C 15.5 85.1, 15.6 84.0, 15.7 82.7
           C 15.8 81.5, 15.9 80.2, 16.0 79.0
           C 16.1 77.7, 16.2 76.3, 16.3 75.0
           C 16.4 73.7, 16.5 72.4, 16.6 71.1
           C 16.7 69.9, 16.7 68.6, 16.8 67.4
           C 16.9 66.2, 16.9 65.0, 17.0 63.8
           C 17.1 62.6, 17.1 61.4, 17.2 60.2
           C 17.2 59.1, 17.2 58.1, 17.3 57.1
           C 17.3 56.1, 17.3 55.2, 17.4 54.3
           C 17.4 53.4, 17.4 52.6, 17.5 51.9
           C 17.5 51.1, 17.5 50.5, 17.5 49.8
           C 17.5 49.1, 17.5 48.4, 17.5 47.8
           C 17.6 47.1, 17.6 46.5, 17.6 45.9
           C 17.6 45.2, 17.6 44.6, 17.6 44.0
           C 17.6 43.4, 17.6 42.8, 17.6 42.2
           C 17.6 41.6, 17.6 41.0, 17.6 40.4
           C 17.6 39.8, 17.6 39.3, 17.6 38.7
           C 17.6 38.1, 17.6 37.6, 17.5 37.0
           C 17.5 36.5, 17.5 35.9, 17.5 35.4
           C 17.5 34.9, 17.5 34.4, 17.5 33.9
           C 17.5 33.5, 17.4 33.0, 17.4 32.6
           C 17.4 32.2, 17.4 31.8, 17.3 31.4
           C 17.3 31.1, 17.3 30.7, 17.3 30.4
           C 17.2 30.1, 17.2 29.8, 17.2 29.6
           C 17.2 29.4, 17.1 29.1, 17.1 28.9
           C 17.1 28.8, 17.1 28.6, 17.0 28.5
           C 17.0 28.4, 17.0 28.3, 17.0 28.2
           C 16.9 28.1, 16.9 28.0, 16.9 28.0
           C 16.9 27.9, 16.8 27.9, 16.8 27.9
           C 16.8 27.8, 16.8 27.8, 16.7 27.8
           C 16.7 27.8, 16.7 27.9, 16.7 27.9
           C 16.6 27.9, 16.6 28.1, 16.6 28.2
           C 16.5 28.3, 16.5 28.5, 16.5 28.7
           C 16.4 28.9, 16.4 29.2, 16.3 29.5
           C 16.3 29.8, 16.3 30.1, 16.2 30.5
           C 16.2 30.9, 16.1 31.3, 16.1 31.7
           C 16.1 32.2, 16.0 32.8, 16.0 33.3
           C 15.9 33.9, 15.9 34.5, 15.9 35.2
           C 15.8 35.8, 15.8 36.6, 15.8 37.3
           C 15.8 38.1, 15.7 38.9, 15.7 39.8
           C 15.7 40.7, 15.6 41.7, 15.6 42.7
           C 15.6 43.7, 15.6 44.8, 15.5 45.9
           C 15.5 47.1, 15.5 48.3, 15.4 49.5
           C 15.4 50.7, 15.4 52.0, 15.4 53.2
           C 15.4 54.4, 15.3 55.6, 15.3 56.9
           C 15.3 58.1, 15.3 59.4, 15.3 60.6
           C 15.3 61.9, 15.3 62.9, 15.3 64.4
           C 15.2 66.3, 15.2 68.6, 15.2 71.0
           C 15.2 73.9, 15.2 77.1, 15.2 80.5
           C 15.2 84.3, 15.3 88.5, 15.3 92.9
           C 15.3 97.7, 15.3 103.2, 15.3 108.1
           C 15.3 112.6, 15.3 117.0, 15.3 121.2
           C 15.3 125.0, 15.3 128.7, 15.3 132.1
           C 15.3 135.3, 15.3 138.2, 15.3 141.0
           C 15.3 143.4, 15.3 145.4, 15.3 147.7
           C 15.3 149.9, 15.2 152.2, 15.2 154.4
           C 15.2 156.7, 15.2 159.0, 15.2 161.2
           C 15.2 163.5, 15.1 165.8, 15.1 168.1
           C 15.1 170.3, 15.1 172.7, 15.0 174.9
           C 15.0 177.2, 15.0 179.4, 14.9 181.6
           C 14.9 183.8, 14.9 185.9, 14.8 188.0
           C 14.8 190.1, 14.7 192.2, 14.7 194.3
           C 14.7 196.3, 14.6 198.4, 14.6 200.3
           C 14.5 202.0, 14.5 203.6, 14.4 205.1
           C 14.4 206.3, 14.4 207.6, 14.3 208.6
           C 14.3 209.5, 14.3 210.3, 14.3 211.0
           C 14.3 211.4, 14.2 211.7, 14.2 212.1
           C 14.2 212.5, 14.2 212.9, 14.1 213.3
           C 14.1 213.7, 14.1 214.1, 14.1 214.5
           C 14.0 214.9, 14.0 215.4, 13.9 215.8
           C 13.9 216.2, 13.9 216.6, 13.8 217.1
           C 13.7 217.6, 13.7 218.1, 13.6 218.6
           C 13.5 219.2, 13.4 219.7, 13.2 220.3
           C 13.1 221.0, 13.0 221.6, 12.8 222.2
           C 12.7 222.9, 12.5 223.7, 12.3 224.4
           C 12.2 225.0, 12.0 225.6, 11.9 226.2
           C 11.8 226.8, 11.7 227.3, 11.6 227.9
           C 11.5 228.3, 11.4 228.8, 11.3 229.2
           C 11.3 229.6, 11.2 230.0, 11.2 230.4
           C 11.2 230.7, 11.1 231.1, 11.1 231.5
           C 11.0 231.8, 11.0 232.2, 11.0 232.5
           C 10.9 232.9, 10.9 233.2, 10.9 233.6
           C 10.9 233.9, 10.8 234.3, 10.8 234.6
           C 10.8 234.9, 10.8 235.3, 10.7 235.6
           C 10.7 236.0, 10.7 236.3, 10.7 236.7
           C 10.7 237.0, 10.7 237.3, 10.6 237.7
           C 10.6 238.0, 10.6 238.4, 10.6 238.7
           C 10.6 239.0, 10.6 239.4, 10.6 239.7
           C 10.6 240.0, 10.6 240.3, 10.6 240.6
           C 10.6 240.9, 10.6 241.2, 10.6 241.5
           C 10.7 241.8, 10.7 242.1, 10.8 242.4
           C 10.9 242.6, 11.0 242.9, 11.1 243.1
           C 11.2 243.3, 11.3 243.6, 11.5 243.8
           C 11.6 243.9, 11.8 244.1, 12.0 244.3
           C 12.2 244.4, 12.4 244.6, 12.6 244.7
           C 12.9 244.8, 13.2 244.9, 13.5 245.0
           C 13.8 245.1, 14.2 245.1, 14.6 245.2
           C 15.0 245.2, 15.5 245.2, 15.9 245.2
           C 16.4 245.2, 17.0 245.1, 17.5 245.0
           C 18.1 245.0, 18.6 244.9, 19.1 244.7
           C 19.7 244.6, 20.2 244.4, 20.8 244.2
           C 21.3 244.0, 21.8 243.7, 22.4 243.5
           C 22.9 243.2, 23.5 242.9, 24.0 242.6
           C 24.6 242.2, 25.1 241.9, 25.6 241.5
           C 26.1 241.1, 26.7 240.7, 27.2 240.2
           C 27.7 239.8, 28.2 239.3, 28.7 238.8
           C 29.2 238.3, 29.7 237.7, 30.1 237.2
           C 30.6 236.6, 31.1 236.0, 31.6 235.4
           C 32.1 234.8, 32.6 234.2, 33.0 233.5
           C 33.5 232.8, 34.0 232.1, 34.4 231.4
           C 34.9 230.7, 35.3 229.9, 35.8 229.2
           C 36.3 228.5, 36.8 227.8, 37.4 227.1
           C 37.9 226.5, 38.5 225.8, 39.1 225.2
           C 39.7 224.6, 40.3 224.1, 41.0 223.5
           C 41.6 223.0, 42.3 222.5, 43.0 222.0
           C 43.7 221.5, 44.5 221.1, 45.3 220.7
           C 46.1 220.3, 46.9 220.0, 47.8 219.7
           C 48.7 219.4, 49.6 219.1, 50.6 218.9
           C 51.6 218.7, 52.5 218.5, 53.6 218.3
           C 55.0 218.1, 56.6 218.0, 58.3 217.8
           C 60.2 217.6, 62.4 217.4, 64.6 217.3
           C 67.1 217.1, 69.8 216.9, 72.6 216.8
           C 75.6 216.6, 79.1 216.5, 82.2 216.3
           C 85.0 216.1, 87.8 216.0, 90.4 215.7
           C 92.8 215.6, 95.1 215.3, 97.3 215.1
           C 99.2 214.9, 101.1 214.7, 102.8 214.4
           C 104.3 214.1, 105.6 213.9, 106.9 213.6
           C 108.2 213.3, 109.5 213.0, 110.8 212.7
           C 112.0 212.4, 113.2 212.0, 114.3 211.7
           C 115.5 211.4, 116.6 211.0, 117.6 210.6
           C 118.7 210.3, 119.6 209.9, 120.6 209.5
           C 121.6 209.1, 122.6 208.7, 123.6 208.3
           C 124.5 207.8, 125.5 207.4, 126.4 206.9
           C 127.3 206.5, 128.2 206.0, 129.1 205.6
           C 130.0 205.1, 130.9 204.6, 131.8 204.1
           C 132.8 203.5, 133.8 202.8, 134.8 202.1
           C 135.9 201.3, 137.0 200.5, 138.1 199.6
           C 139.3 198.7, 140.5 197.6, 141.8 196.6
           C 143.1 195.5, 144.5 194.2, 145.8 193.1
           C 147.0 192.0, 148.2 190.8, 149.3 189.7
           C 150.4 188.7, 151.4 187.6, 152.4 186.6
           C 153.4 185.6, 154.3 184.6, 155.1 183.6
           C 155.9 182.7, 156.6 181.7, 157.3 180.8
           C 158.0 179.8, 158.7 178.8, 159.4 177.8
           C 160.1 176.8, 160.8 175.8, 161.4 174.8
           C 162.0 173.7, 162.6 172.7, 163.2 171.6
           C 163.8 170.5, 164.4 169.4, 164.9 168.2
           C 165.5 167.1, 166.0 166.0, 166.4 164.9
           C 166.9 163.8, 167.3 162.7, 167.7 161.6
           C 168.1 160.5, 168.5 159.3, 168.9 158.2
           C 169.2 157.1, 169.5 156.0, 169.8 154.9
           C 170.0 153.8, 170.3 152.6, 170.4 151.5
           C 170.6 150.4, 170.8 149.3, 170.9 148.2
           C 171.0 147.1, 171.1 146.0, 171.1 144.9
           C 171.1 143.8, 171.1 142.7, 171.1 141.7
           C 171.0 140.6, 170.9 139.6, 170.8 138.6
           C 170.7 137.6, 170.5 136.6, 170.3 135.7
           C 170.1 134.7, 169.9 133.8, 169.6 132.9
           C 169.4 132.0, 169.0 131.2, 168.7 130.3
           C 168.3 129.5, 168.0 128.7, 167.5 127.9
           C 167.1 127.1, 166.6 126.3, 166.1 125.6
           C 165.6 124.8, 165.1 124.1, 164.5 123.4
           C 163.9 122.7, 163.3 122.0, 162.6 121.3
           C 162.0 120.7, 161.3 120.1, 160.7 119.5
           C 160.0 118.9, 159.3 118.4, 158.5 117.9
           C 157.8 117.5, 157.0 117.0, 156.3 116.6
           C 155.5 116.2, 154.7 115.9, 153.8 115.6
           C 153.0 115.3, 152.2 115.0, 151.4 114.8
           C 150.6 114.6, 149.8 114.4, 149.0 114.3
           C 148.2 114.2, 147.3 114.1, 146.5 114.1
           C 145.7 114.1, 144.8 114.1, 144.0 114.1
           C 143.2 114.2, 142.4 114.3, 141.7 114.5
           C 140.9 114.6, 140.2 114.8, 139.5 115.0
           C 138.8 115.2, 138.1 115.5, 137.5 115.8
           C 136.8 116.1, 136.2 116.5, 135.6 116.9
           C 135.0 117.3, 134.4 117.7, 133.8 118.1
           C 133.2 118.6, 132.7 119.1, 132.1 119.6
           C 131.6 120.2, 131.1 120.7, 130.6 121.3
           C 130.1 121.9, 129.6 122.6, 129.1 123.2
           C 128.7 123.9, 128.3 124.6, 127.9 125.3
           C 127.5 125.9, 127.1 126.7, 126.8 127.4
           C 126.5 128.1, 126.2 128.8, 126.0 129.6
           C 125.7 130.4, 125.5 131.1, 125.3 131.9
           C 125.1 132.7, 124.9 133.5, 124.8 134.3
           C 124.6 135.2, 124.5 136.0, 124.4 136.9
           C 124.4 137.7, 124.3 138.6, 124.3 139.5
           C 124.2 140.4, 124.2 141.4, 124.3 142.3
           C 124.3 143.2, 124.3 144.1, 124.4 145.0
           C 124.5 145.8, 124.6 146.7, 124.7 147.6
           C 124.9 148.4, 125.0 149.3, 125.2 150.1
           C 125.4 151.0, 125.6 151.8, 125.8 152.6
           C 126.1 153.5, 126.3 154.3, 126.6 155.1
           C 126.9 156.0, 127.2 156.8, 127.6 157.7
           C 127.9 158.5, 128.3 159.4, 128.7 160.2
           C 129.1 161.1, 129.6 162.0, 130.0 162.8
           C 130.5 163.7, 131.0 164.6, 131.6 165.4
           C 132.1 166.3, 132.7 167.2, 133.4 168.1
           C 134.0 169.1, 134.7 170.0, 135.4 170.9
           C 136.1 171.8, 136.9 172.8, 137.7 173.7
           C 138.4 174.5, 139.1 175.4, 139.9 176.2
           C 140.6 177.0, 141.3 177.8, 142.0 178.5
           C 142.7 179.2, 143.4 179.9, 144.1 180.6
           C 144.8 181.2, 145.4 181.8, 146.1 182.4
           C 146.8 182.9, 147.5 183.5, 148.2 184.1
           C 148.9 184.7, 149.7 185.3, 150.4 185.8
           C 151.2 186.4, 152.0 187.0, 152.8 187.5
           C 153.5 188.1, 154.4 188.7, 155.2 189.2
           C 156.0 189.8, 156.8 190.3, 157.6 190.8
           C 158.5 191.3, 159.3 191.8, 160.1 192.3
           C 161.0 192.7, 161.8 193.2, 162.7 193.6
           C 163.5 194.1, 164.4 194.5, 165.3 194.9
           C 166.2 195.3, 167.2 195.7, 168.2 196.0
           C 169.2 196.4, 170.3 196.7, 171.4 197.0
           C 172.6 197.3, 173.7 197.6, 175.0 197.9
           C 176.2 198.1, 177.5 198.4, 178.8 198.6
           C 180.1 198.8, 181.3 198.9, 182.5 199.1
           C 183.7 199.2, 184.9 199.3, 186.0 199.3
           C 187.2 199.4, 188.3 199.4, 189.4 199.3
           C 190.5 199.3, 191.5 199.2, 192.6 199.1
           C 193.6 199.0, 194.7 198.9, 195.8 198.8
           C 196.8 198.7, 197.9 198.5, 199.0 198.4
           C 200.1 198.2, 201.2 198.0, 202.2 197.8
           C 203.3 197.6, 204.4 197.3, 205.5 197.1
           C 206.6 196.9, 207.6 196.6, 208.6 196.4
           C 209.6 196.1, 210.6 195.9, 211.6 195.6
           C 212.5 195.3, 213.5 195.0, 214.4 194.7
           C 215.3 194.5, 216.2 194.2, 217.1 193.9
           C 217.9 193.5, 218.8 193.2, 219.7 192.9
           C 220.6 192.5, 221.4 192.2, 222.3 191.8
           C 223.1 191.5, 224.0 191.1, 224.8 190.7
           C 225.6 190.3, 226.5 189.8, 227.3 189.5
           C 227.9 189.1, 228.6 188.8, 229.1 188.5
           C 229.6 188.3, 230.0 188.1, 230.4 187.9
           C 230.6 187.8, 230.8 187.7, 231.0 187.6"
        fill="none" stroke="#0f1229" stroke-width="9"
        stroke-linecap="round" stroke-linejoin="round"/>
</svg>
