<?xml version="1.0" encoding="UTF-8"?>
<svg xmlns="http://www.w3.org/2000/svg" xmlns:xlink="http://www.w3.org/1999/xlink"
     viewBox="0 0 241 273" width="500" height="500" style="background: #f8f9fa">
  <image href="Submark - No BG.png" x="0" y="0" width="241" height="273" opacity="0.25" preserveAspectRatio="xMidYMid meet"/>
  <path d="M 10.0 121.4
           C 10.2 121.4, 10.3 121.4, 10.5 121.4
           C 10.8 121.3, 11.1 121.3, 11.5 121.2
           C 11.9 121.2, 12.4 121.1, 13.0 121.0
           C 13.6 120.9, 14.3 120.8, 14.9 120.7
           C 15.6 120.6, 16.3 120.4, 16.9 120.3
           C 17.6 120.1, 18.3 119.9, 19.0 119.6
           C 19.7 119.4, 20.4 119.1, 21.1 118.8
           C 21.8 118.6, 22.5 118.3, 23.2 117.9
           C 24.2 117.4, 25.2 116.9, 26.2 116.2
           C 27.4 115.5, 28.7 114.7, 30.0 113.9
           C 31.5 113.0, 33.1 112.0, 34.7 110.9
           C 36.5 109.7, 38.5 108.4, 40.2 107.2
           C 41.7 106.1, 43.2 105.1, 44.6 104.2
           C 45.8 103.3, 46.9 102.5, 47.9 101.8
           C 48.7 101.2, 49.5 100.6, 50.1 100.1
           C 50.5 99.8, 50.8 99.5, 51.2 99.1
           C 51.6 98.7, 52.0 98.1, 52.4 97.6
           C 52.8 96.9, 53.2 96.2, 53.6 95.5
           C 54.1 94.7, 54.6 93.8, 55.0 92.9
           C 55.5 91.9, 55.9 90.8, 56.5 89.7
           C 57.0 88.6, 57.4 87.4, 58.3 86.3
           C 59.6 85.0, 62.8 84.2, 63.7 82.7
           C 64.3 81.6, 63.9 80.2, 64.0 79.0
           C 64.2 77.7, 64.4 76.3, 64.6 75.0
           C 64.8 73.7, 65.0 72.4, 65.2 71.1
           C 65.3 69.9, 65.5 68.6, 65.7 67.4
           C 65.8 66.2, 65.9 65.0, 66.0 63.8
           C 66.1 62.6, 66.2 61.4, 66.3 60.2
           C 66.4 59.1, 66.4 58.1, 66.5 57.1
           C 66.6 56.1, 66.6 55.2, 66.7 54.3
           C 66.7 53.4, 66.8 52.6, 66.9 51.9
           C 66.9 51.1, 67.0 50.5, 67.0 49.8
           C 67.1 49.1, 67.1 48.4, 67.1 47.8
           C 67.2 47.1, 67.2 46.5, 67.2 45.9
           C 67.3 45.2, 67.3 44.6, 67.3 44.0
           C 67.3 43.4, 67.3 42.8, 67.3 42.2
           C 67.3 41.6, 67.3 41.0, 67.3 40.4
           C 67.3 39.8, 67.3 39.3, 67.3 38.7
           C 67.3 38.1, 67.2 37.6, 67.2 37.0
           C 67.2 36.5, 67.1 35.9, 67.1 35.4
           C 67.0 34.9, 67.0 34.4, 66.9 33.9
           C 66.9 33.5, 66.8 33.0, 66.7 32.6
           C 66.7 32.2, 66.6 31.8, 66.5 31.4
           C 66.5 31.1, 66.4 30.7, 66.3 30.4
           C 66.2 30.1, 66.2 29.8, 66.1 29.6
           C 66.0 29.3, 65.9 29.1, 65.8 28.9
           C 65.8 28.8, 65.7 28.6, 65.6 28.5
           C 65.5 28.3, 65.4 28.3, 65.3 28.2
           C 65.3 28.1, 65.2 28.0, 65.1 28.0
           C 65.0 27.9, 64.9 27.9, 64.8 27.9
           C 64.7 27.8, 64.6 27.8, 64.5 27.8
           C 64.4 27.8, 64.3 27.8, 64.2 27.9
           C 64.1 27.9, 64.0 28.1, 63.9 28.2
           C 63.8 28.3, 63.7 28.5, 63.6 28.7
           C 63.5 28.9, 63.4 29.2, 63.2 29.5
           C 63.1 29.8, 63.0 30.1, 62.9 30.5
           C 62.8 30.9, 62.6 31.3, 62.5 31.7
           C 62.4 32.2, 62.3 32.8, 62.2 33.3
           C 62.0 33.9, 61.9 34.5, 61.8 35.2
           C 61.7 35.8, 61.6 36.6, 61.5 37.3
           C 61.4 38.1, 61.3 38.9, 61.2 39.8
           C 61.1 40.7, 61.0 41.7, 60.9 42.7
           C 60.7 43.7, 60.6 44.8, 60.5 45.9
           C 60.4 47.1, 60.3 48.3, 60.1 49.5
           C 60.0 50.7, 59.9 52.0, 59.7 53.2
           C 59.6 54.4, 59.4 55.6, 59.2 56.9
           C 59.0 58.1, 58.8 59.4, 58.7 60.6
           C 58.5 61.9, 58.3 62.9, 58.1 64.4
           C 57.9 66.3, 57.7 68.6, 57.6 71.0
           C 57.4 73.9, 57.3 77.1, 57.2 80.5
           C 57.1 84.3, 57.1 88.5, 57.0 92.9
           C 56.9 97.7, 56.6 103.2, 56.6 108.1
           C 56.6 112.6, 56.7 117.0, 56.8 121.2
           C 56.8 125.0, 56.8 128.7, 56.8 132.1
           C 56.8 135.3, 56.7 138.2, 56.6 141.0
           C 56.6 143.4, 56.5 145.5, 56.4 147.7
           C 56.3 149.9, 56.1 152.2, 56.0 154.4
           C 55.8 156.7, 55.6 159.0, 55.4 161.2
           C 55.2 163.5, 55.0 165.8, 54.8 168.1
           C 54.5 170.3, 54.3 172.7, 54.0 174.9
           C 53.7 177.2, 53.4 179.4, 53.0 181.6
           C 52.7 183.8, 52.4 185.9, 52.0 188.0
           C 51.6 190.1, 51.2 192.2, 50.8 194.3
           C 50.3 196.3, 49.9 198.4, 49.4 200.3
           C 49.0 202.0, 48.6 203.6, 48.3 205.1
           C 48.0 206.3, 47.7 207.6, 47.4 208.6
           C 47.1 209.5, 46.9 210.4, 46.6 211.0
           C 46.5 211.4, 46.3 211.7, 46.1 212.1
           C 45.9 212.5, 45.7 212.9, 45.4 213.3
           C 45.1 213.7, 44.8 214.1, 44.5 214.5
           C 44.1 214.9, 43.7 215.4, 43.3 215.8
           C 42.9 216.2, 42.5 216.7, 42.0 217.1
           C 41.3 217.6, 40.5 218.1, 39.7 218.6
           C 38.7 219.2, 37.7 219.8, 36.5 220.3
           C 35.3 221.0, 33.9 221.6, 32.4 222.2
           C 30.9 222.9, 29.0 223.7, 27.4 224.4
           C 26.0 225.0, 24.6 225.6, 23.3 226.2
           C 22.2 226.8, 21.1 227.3, 20.2 227.9
           C 19.3 228.3, 18.6 228.8, 17.9 229.2
           C 17.4 229.6, 17.0 230.0, 16.6 230.4
           C 16.2 230.7, 15.8 231.1, 15.4 231.5
           C 15.0 231.8, 14.7 232.2, 14.3 232.5
           C 14.0 232.9, 13.7 233.2, 13.4 233.6
           C 13.2 233.9, 12.9 234.3, 12.7 234.6
           C 12.4 234.9, 12.2 235.3, 12.0 235.6
           C 11.9 236.0, 11.7 236.3, 11.5 236.7
           C 11.4 237.0, 11.2 237.3, 11.1 237.7
           C 11.0 238.0, 10.9 238.4, 10.8 238.7
           C 10.8 239.0, 10.7 239.4, 10.7 239.7
           C 10.6 240.0, 10.6 240.3, 10.6 240.6
           C 10.6 240.9, 10.6 241.2, 10.6 241.5
           C 10.7 241.8, 10.7 242.1, 10.8 242.4
           C 10.9 242.6, 11.0 242.9, 11.1 243.1
           C 11.2 243.3, 11.3 243.6, 11.5 243.8
           C 11.6 243.9, 11.8 244.1, 12.0 244.3
           C 12.2 244.4, 12.4 244.6, 12.6 244.7
           C 12.9 244.8, 13.2 244.9, 13.5 245.0
           C 13.8 245.1, 14.2 245.1, 14.6 245.2
           C 15.0 245.2, 15.5 245.2, 15.9 245.2
           C 16.4 245.2, 17.0 245.1, 17.5 245.0
           C 18.1 245.0, 18.6 244.9, 19.1 244.7
           C 19.7 244.6, 20.2 244.4, 20.8 244.2
           C 21.3 244.0, 21.8 243.7, 22.4 243.5
           C 22.9 243.2, 23.5 242.9, 24.0 242.6
           C 24.6 242.2, 25.1 241.9, 25.6 241.5
           C 26.1 241.1, 26.7 240.7, 27.2 240.2
           C 27.7 239.8, 28.2 239.3, 28.7 238.8
           C 29.2 238.3, 29.7 237.7, 30.1 237.2
           C 30.6 236.6, 31.1 236.0, 31.6 235.4
           C 32.1 234.8, 32.6 234.2, 33.0 233.5
           C 33.5 232.8, 34.0 232.1, 34.4 231.4
           C 34.9 230.7, 35.3 229.9, 35.8 229.2
           C 36.3 228.5, 36.8 227.8, 37.4 227.1
           C 37.9 226.5, 38.5 225.8, 39.1 225.2
           C 39.7 224.6, 40.3 224.1, 41.0 223.5
           C 41.6 223.0, 42.3 222.5, 43.0 222.0
           C 43.7 221.5, 44.5 221.1, 45.3 220.7
           C 46.1 220.3, 46.9 220.0, 47.8 219.7
           C 48.7 219.4, 49.6 219.1, 50.6 218.9
           C 51.6 218.7, 52.5 218.5, 53.6 218.3
           C 55.0 218.1, 56.6 218.0, 58.3 217.8
           C 60.2 217.6, 62.4 217.4, 64.6 217.3
           C 67.1 217.1, 69.8 216.9, 72.6 216.8
           C 75.6 216.6, 79.1 216.5, 82.2 216.3
           C 85.0 216.1, 87.8 216.0, 90.4 215.7
           C 92.8 215.6, 95.1 215.3, 97.3 215.1
           C 99.2 214.9, 101.1 214.7, 102.8 214.4
           C 104.3 214.1, 105.6 213.9, 106.9 213.6
           C 108.2 213.3, 109.5 213.0, 110.8 212.7
           C 112.0 212.4, 113.2 212.0, 114.3 211.7
           C 115.5 211.4, 116.6 211.0, 117.6 210.6
           C 118.7 210.3, 119.6 209.9, 120.6 209.5
           C 121.6 209.1, 122.6 208.7, 123.6 208.3
           C 124.5 207.8, 125.5 207.4, 126.4 206.9
           C 127.3 206.5, 128.2 206.0, 129.1 205.6
           C 130.0 205.1, 130.9 204.6, 131.8 204.1
           C 132.8 203.5, 133.8 202.8, 134.8 202.1
           C 135.9 201.3, 137.0 200.5, 138.1 199.6
           C 139.3 198.7, 140.5 197.6, 141.8 196.6
           C 143.1 195.5, 144.5 194.2, 145.8 193.1
           C 147.0 192.0, 148.2 190.8, 149.3 189.7
           C 150.4 188.7, 151.4 187.6, 152.4 186.6
           C 153.4 185.6, 154.3 184.6, 155.1 183.6
           C 155.9 182.7, 156.6 181.7, 157.3 180.8
           C 158.0 179.8, 158.7 178.8, 159.4 177.8
           C 160.1 176.8, 160.8 175.8, 161.4 174.8
           C 162.0 173.7, 162.6 172.7, 163.2 171.6
           C 163.8 170.5, 164.4 169.4, 164.9 168.2
           C 165.5 167.1, 166.0 166.0, 166.4 164.9
           C 166.9 163.8, 167.3 162.7, 167.7 161.6
           C 168.1 160.5, 168.5 159.3, 168.9 158.2
           C 169.2 157.1, 169.5 156.0, 169.8 154.9
           C 170.0 153.8, 170.3 152.6, 170.4 151.5
           C 170.6 150.4, 170.8 149.3, 170.9 148.2
           C 171.0 147.1, 171.1 146.0, 171.1 144.9
           C 171.1 143.8, 171.1 142.7, 171.1 141.7
           C 171.0 140.6, 170.9 139.6, 170.8 138.6
           C 170.7 137.6, 170.5 136.6, 170.3 135.7
           C 170.1 134.7, 169.9 133.8, 169.6 132.9
           C 169.4 132.0, 169.0 131.2, 168.7 130.3
           C 168.3 129.5, 168.0 128.7, 167.5 127.9
           C 167.1 127.1, 166.6 126.3, 166.1 125.6
           C 165.6 124.8, 165.1 124.1, 164.5 123.4
           C 163.9 122.7, 163.3 122.0, 162.6 121.3
           C 162.0 120.7, 161.3 120.1, 160.7 119.5
           C 160.0 118.9, 159.3 118.4, 158.5 117.9
           C 157.8 117.5, 157.0 117.0, 156.3 116.6
           C 155.5 116.2, 154.7 115.9, 153.8 115.6
           C 153.0 115.3, 152.2 115.0, 151.4 114.8
           C 150.6 114.6, 149.8 114.4, 149.0 114.3
           C 148.2 114.2, 147.3 114.1, 146.5 114.1
           C 145.7 114.1, 144.8 114.1, 144.0 114.1
           C 143.2 114.2, 142.4 114.3, 141.7 114.5
           C 140.9 114.6, 140.2 114.8, 139.5 115.0
           C 138.8 115.2, 138.1 115.5, 137.5 115.8
           C 136.8 116.1, 136.2 116.5, 135.6 116.9
           C 135.0 117.3, 134.4 117.7, 133.8 118.1
           C 133.2 118.6, 132.7 119.1, 132.1 119.6
           C 131.6 120.2, 131.1 120.7, 130.6 121.3
           C 130.1 121.9, 129.6 122.6, 129.1 123.2
           C 128.7 123.9, 128.3 124.6, 127.9 125.3
           C 127.5 125.9, 127.1 126.7, 126.8 127.4
           C 126.5 128.1, 126.2 128.8, 126.0 129.6
           C 125.7 130.4, 125.5 131.1, 125.3 131.9
           C 125.1 132.7, 124.9 133.5, 124.8 134.3
           C 124.6 135.2, 124.5 136.0, 124.4 136.9
           C 124.4 137.7, 124.3 138.6, 124.3 139.5
           C 124.2 140.4, 124.2 141.4, 124.3 142.3
           C 124.3 143.2, 124.3 144.1, 124.4 145.0
           C 124.5 145.8, 124.6 146.7, 124.7 147.6
           C 124.9 148.4, 125.0 149.3, 125.2 150.1
           C 125.4 151.0, 125.6 151.8, 125.8 152.6
           C 126.1 153.5, 126.3 154.3, 126.6 155.1
           C 126.9 156.0, 127.2 156.8, 127.6 157.7
           C 127.9 158.5, 128.3 159.4, 128.7 160.2
           C 129.1 161.1, 129.6 162.0, 130.0 162.8
           C 130.5 163.7, 131.0 164.6, 131.6 165.4
           C 132.1 166.3, 132.7 167.2, 133.4 168.1
           C 134.0 169.1, 134.7 170.0, 135.4 170.9
           C 136.1 171.8, 136.9 172.8, 137.7 173.7
           C 138.4 174.5, 139.1 175.4, 139.9 176.2
           C 140.6 177.0, 141.3 177.8, 142.0 178.5
           C 142.7 179.2, 143.4 179.9, 144.1 180.6
           C 144.8 181.2, 145.4 181.8, 146.1 182.4
           C 146.8 182.9, 147.5 183.5, 148.2 184.1
           C 148.9 184.7, 149.7 185.3, 150.4 185.8
           C 151.2 186.4, 152.0 187.0, 152.8 187.5
           C 153.5 188.1, 154.4 188.7, 155.2 189.2
           C 156.0 189.8, 156.8 190.3, 157.6 190.8
           C 158.5 191.3, 159.3 191.8, 160.1 192.3
           C 161.0 192.7, 161.8 193.2, 162.7 193.6
           C 163.5 194.1, 164.4 194.5, 165.3 194.9
           C 166.2 195.3, 167.2 195.7, 168.2 196.0
           C 169.2 196.4, 170.3 196.7, 171.4 197.0
           C 172.6 197.3, 173.7 197.6, 175.0 197.9
           C 176.2 198.1, 177.5 198.4, 178.8 198.6
           C 180.1 198.8, 181.3 198.9, 182.5 199.1
           C 183.7 199.2, 184.9 199.3, 186.0 199.3
           C 187.2 199.4, 188.3 199.4, 189.4 199.3
           C 190.5 199.3, 191.5 199.2, 192.6 199.1
           C 193.6 199.0, 194.7 198.9, 195.8 198.8
           C 196.8 198.7, 197.9 198.5, 199.0 198.4
           C 200.1 198.2, 201.2 198.0, 202.2 197.8
           C 203.3 197.6, 204.4 197.3, 205.5 197.1
           C 206.6 196.9, 207.6 196.6, 208.6 196.4
           C 209.6 196.1, 210.6 195.9, 211.6 195.6
           C 212.5 195.3, 213.5 195.0, 214.4 194.7
           C 215.3 194.5, 216.2 194.2, 217.1 193.9
           C 217.9 193.5, 218.8 193.2, 219.7 192.9
           C 220.6 192.5, 221.4 192.2, 222.3 191.8
           C 223.1 191.5, 224.0 191.1, 224.8 190.7
           C 225.6 190.3, 226.5 189.8, 227.3 189.5
           C 227.9 189.1, 228.6 188.8, 229.1 188.5
           C 229.6 188.3, 230.0 188.1, 230.4 187.9
           C 230.6 187.8, 230.8 187.7, 231.0 187.6"
        fill="none" stroke="#0f1229" stroke-width="9"
        stroke-linecap="round" stroke-linejoin="round"/>
</svg>
